<svg width="24" height="29.999999999999996" xmlns="http://www.w3.org/2000/svg">

 <g>
  <title>background</title>
  <rect fill="none" id="canvas_background" height="32" width="26" y="-1" x="-1"/>
 </g>
 <g>
  <title>Layer 1</title>
  <g id="svg_1">
   <g id="svg_2">
    <g id="svg_3">
     <path id="svg_4" d="m23.5,26.561224l-23,0c-0.276,0 -0.5,-0.224 -0.5,-0.5l0,-0.734c0,-2.764 1.754,-5.231 4.365,-6.139l2.572,-0.895c0.188,-0.065 0.397,-0.013 0.533,0.134c1.261,1.376 2.87,2.134 4.53,2.134s3.269,-0.758 4.53,-2.134c0.135,-0.147 0.346,-0.2 0.533,-0.134l2.572,0.895l0,0c2.611,0.907 4.365,3.374 4.365,6.139l0,0.734c0,0.276 -0.224,0.5 -0.5,0.5zm-22.5,-1l22,0l0,-0.234c0,-2.339 -1.484,-4.427 -3.693,-5.195l-2.268,-0.789c-1.418,1.433 -3.196,2.218 -5.039,2.218s-3.621,-0.785 -5.039,-2.218l-2.268,0.789c-2.209,0.768 -3.693,2.856 -3.693,5.195l0,0.234z"  fill="currentColor"/>
    </g>
    <g id="svg_5">
     <path id="svg_6" d="m12,19.561224c-2.464,0 -4.653,-1.99 -5.562,-5.002c-0.824,-0.05 -1.438,-1.107 -1.438,-2.498c0,-1.133 0.407,-2.044 1.003,-2.37c-0.002,-0.043 -0.003,-0.087 -0.003,-0.13c0,-3.309 2.691,-6 6,-6s6,2.691 6,6c0,0.043 -0.001,0.087 -0.003,0.13c0.596,0.326 1.003,1.237 1.003,2.37c0,1.391 -0.614,2.448 -1.438,2.498c-0.909,3.012 -3.098,5.002 -5.562,5.002zm-5.209,-6.082c0.061,0 0.121,0.01 0.176,0.033c0.148,0.061 0.273,0.176 0.312,0.331c0.7,2.822 2.597,4.718 4.721,4.718s4.021,-1.896 4.721,-4.718c0.039,-0.155 0.149,-0.282 0.296,-0.342c0.149,-0.06 0.316,-0.046 0.452,0.038c0.164,0.022 0.531,-0.51 0.531,-1.478c0,-0.917 -0.337,-1.442 -0.478,-1.496c-0.005,0.001 -0.011,0.001 -0.015,0.002c-0.148,0.012 -0.297,-0.038 -0.404,-0.145c-0.106,-0.106 -0.158,-0.255 -0.143,-0.405l0.014,-0.125c0.012,-0.109 0.026,-0.218 0.026,-0.331c0,-2.757 -2.243,-5 -5,-5s-5,2.243 -5,5c0,0.113 0.014,0.222 0.026,0.332l0.014,0.125c0.016,0.149 -0.037,0.298 -0.143,0.405c-0.106,0.106 -0.257,0.155 -0.404,0.144c-0.004,0 -0.01,-0.001 -0.015,-0.002c-0.141,0.054 -0.478,0.579 -0.478,1.496c0,0.968 0.375,1.5 0.5,1.5c0.085,-0.053 0.189,-0.082 0.291,-0.082z"  fill="currentColor"/>
    </g>
   </g>
   <g id="svg_7">
    <path id="svg_8" d="m11.496,13.552224c-0.242,0 -0.452,-0.169 -0.49,-0.415c-0.065,-0.424 0.121,-1.323 1.233,-2.003c0.576,-0.351 0.761,-0.734 0.761,-1.573c0,-0.902 -0.699,-1 -1,-1s-1,0.098 -1,1c0,0.276 -0.224,0.5 -0.5,0.5s-0.5,-0.224 -0.5,-0.5c0,-1.178 0.822,-2 2,-2s2,0.822 2,2c0,1.186 -0.359,1.889 -1.239,2.427c-0.798,0.487 -0.766,0.992 -0.765,1.013c0.022,0.269 -0.171,0.516 -0.438,0.547c-0.021,0.002 -0.042,0.004 -0.062,0.004z"  fill="currentColor"/>
   </g>
   <g id="svg_9">
    <circle id="svg_10" r="0.5" cy="15.061224" cx="11.5"/>
   </g>
  </g>

 </g>
</svg>