<svg viewBox="64 64 896 896"  data-icon="rocket" width="24" height="24" fill="currentColor"  xmlns="http://www.w3.org/2000/svg">
  <g>
    <path d="M 707.8 736.1 L 316.5 736 C 314.2 743.2 313 751 313 759.8 C 313 781.9 320.6 803.5 334.4 820.6 C 345.664 834.586 360.583 845.177 377.5 851.2 C 400.6 905.2 453.1 940 512 940 C 541.1 940 569.3 931.4 593.4 915.2 C 617 899.4 635.3 877.3 646.4 851.2 C 663.311 845.214 678.23 834.656 689.5 820.7 C 703.318 803.445 710.864 782.006 710.9 759.9 C 710.9 751.5 709.8 743.5 707.8 736.1 Z" fill=""/>
    <path style="" d="M 864.459 736.918 C 864.459 625.318 799.059 528.918 704.459 484.018 L 704.459 318.218 C 704.459 303.118 699.159 288.518 689.359 277.018 L 536.959 96.318 C 530.559 88.718 521.459 84.918 512.459 84.918 C 503.459 84.918 494.359 88.718 487.959 96.318 L 335.559 277.018 C 325.826 288.542 320.478 303.134 320.459 318.218 L 320.459 484.018 C 225.859 528.918 160.459 625.318 160.459 736.918 L 864.459 737.018 L 864.459 736.918 Z M 762.759 622.318 C 772.159 636.918 779.759 652.618 785.259 668.918 L 700.459 668.918 L 700.459 559.618 C 725.408 575.899 746.638 597.265 762.759 622.318 Z M 388.459 484.018 L 388.459 319.718 L 512.459 172.718 L 636.459 319.718 L 636.459 668.918 L 388.459 668.918 L 388.459 484.018 Z M 239.659 668.918 C 245.159 652.618 252.759 636.918 262.159 622.318 C 278.459 597.118 299.659 575.818 324.459 559.618 L 324.459 668.918 L 239.659 668.918 Z M 464.459 400.918 C 464.459 437.868 504.459 460.962 536.459 442.487 C 551.31 433.913 560.459 418.067 560.459 400.918 C 560.459 363.968 520.459 340.874 488.459 359.349 C 473.608 367.923 464.459 383.769 464.459 400.918 Z" />
  </g>
</svg>
